<svg width="17" height="17" viewBox="0 0 17 17" fill="none" xmlns="http://www.w3.org/2000/svg">
<path d="M8.76002 7.76667C7.24669 7.37333 6.76002 6.96667 6.76002 6.33333C6.76002 5.60667 7.43336 5.1 8.56002 5.1C9.74669 5.1 10.1867 5.66667 10.2267 6.5H11.7C11.6534 5.35333 10.9534 4.3 9.56002 3.96V2.5H7.56002V3.94C6.26669 4.22 5.22669 5.06 5.22669 6.34667C5.22669 7.88667 6.50002 8.65333 8.36002 9.1C10.0267 9.5 10.36 10.0867 10.36 10.7067C10.36 11.1667 10.0334 11.9 8.56002 11.9C7.18669 11.9 6.64669 11.2867 6.57336 10.5H5.10669C5.18669 11.96 6.28002 12.78 7.56002 13.0533V14.5H9.56002V13.0667C10.86 12.82 11.8934 12.0667 11.8934 10.7C11.8934 8.80667 10.2734 8.16 8.76002 7.76667Z" fill="#090C05"/>
</svg>
