<svg width="54" height="54" viewBox="0 0 54 54" fill="none" xmlns="http://www.w3.org/2000/svg">
<path opacity="0.24" d="M0 27C0 12.0883 12.0883 0 27 0V0C41.9117 0 54 12.0883 54 27V27C54 41.9117 41.9117 54 27 54V54C12.0883 54 0 41.9117 0 27V27Z" fill="#4873FA"/>
<g clip-path="url(#clip0_393_23550)">
<path d="M28.03 16.8717L17.04 15.2017C16.53 15.1217 16.01 15.2617 15.62 15.5917C15.23 15.9317 15 16.4217 15 16.9317V38.0017C15 38.5517 15.45 39.0017 16 39.0017H19.25V33.7517C19.25 32.7817 20.03 32.0017 21 32.0017H23.5C24.47 32.0017 25.25 32.7817 25.25 33.7517V39.0017H29.5V18.6017C29.5 17.7417 28.88 17.0117 28.03 16.8717ZM20.5 29.7517H19C18.586 29.7517 18.25 29.4157 18.25 29.0017C18.25 28.5877 18.586 28.2517 19 28.2517H20.5C20.914 28.2517 21.25 28.5877 21.25 29.0017C21.25 29.4157 20.914 29.7517 20.5 29.7517ZM20.5 26.7517H19C18.586 26.7517 18.25 26.4157 18.25 26.0017C18.25 25.5877 18.586 25.2517 19 25.2517H20.5C20.914 25.2517 21.25 25.5877 21.25 26.0017C21.25 26.4157 20.914 26.7517 20.5 26.7517ZM20.5 23.7517H19C18.586 23.7517 18.25 23.4157 18.25 23.0017C18.25 22.5877 18.586 22.2517 19 22.2517H20.5C20.914 22.2517 21.25 22.5877 21.25 23.0017C21.25 23.4157 20.914 23.7517 20.5 23.7517ZM20.5 20.7517H19C18.586 20.7517 18.25 20.4157 18.25 20.0017C18.25 19.5877 18.586 19.2517 19 19.2517H20.5C20.914 19.2517 21.25 19.5877 21.25 20.0017C21.25 20.4157 20.914 20.7517 20.5 20.7517ZM25.5 29.7517H24C23.586 29.7517 23.25 29.4157 23.25 29.0017C23.25 28.5877 23.586 28.2517 24 28.2517H25.5C25.914 28.2517 26.25 28.5877 26.25 29.0017C26.25 29.4157 25.914 29.7517 25.5 29.7517ZM25.5 26.7517H24C23.586 26.7517 23.25 26.4157 23.25 26.0017C23.25 25.5877 23.586 25.2517 24 25.2517H25.5C25.914 25.2517 26.25 25.5877 26.25 26.0017C26.25 26.4157 25.914 26.7517 25.5 26.7517ZM25.5 23.7517H24C23.586 23.7517 23.25 23.4157 23.25 23.0017C23.25 22.5877 23.586 22.2517 24 22.2517H25.5C25.914 22.2517 26.25 22.5877 26.25 23.0017C26.25 23.4157 25.914 23.7517 25.5 23.7517ZM25.5 20.7517H24C23.586 20.7517 23.25 20.4157 23.25 20.0017C23.25 19.5877 23.586 19.2517 24 19.2517H25.5C25.914 19.2517 26.25 19.5877 26.25 20.0017C26.25 20.4157 25.914 20.7517 25.5 20.7517Z" fill="#4873FA"/>
<path d="M37.62 25.8426L30.5 24.3516V39.0006H37.25C38.215 39.0006 39 38.2156 39 37.2506V27.5526C39 26.7266 38.437 26.0236 37.62 25.8426ZM35.25 36.0006H33.75C33.336 36.0006 33 35.6646 33 35.2506C33 34.8366 33.336 34.5006 33.75 34.5006H35.25C35.664 34.5006 36 34.8366 36 35.2506C36 35.6646 35.664 36.0006 35.25 36.0006ZM35.25 33.0006H33.75C33.336 33.0006 33 32.6646 33 32.2506C33 31.8366 33.336 31.5006 33.75 31.5006H35.25C35.664 31.5006 36 31.8366 36 32.2506C36 32.6646 35.664 33.0006 35.25 33.0006ZM35.25 30.0006H33.75C33.336 30.0006 33 29.6646 33 29.2506C33 28.8366 33.336 28.5006 33.75 28.5006H35.25C35.664 28.5006 36 28.8366 36 29.2506C36 29.6646 35.664 30.0006 35.25 30.0006Z" fill="#4873FA"/>
</g>
<defs>
<clipPath id="clip0_393_23550">
<rect width="24" height="24" fill="white" transform="translate(15 15)"/>
</clipPath>
</defs>
</svg>
