<svg width="14" height="15" viewBox="0 0 14 15" fill="none" xmlns="http://www.w3.org/2000/svg">
<path d="M6.99999 4.58333V2.25H1.16666V12.75H12.8333V4.58333H6.99999ZM3.49999 11.5833H2.33332V10.4167H3.49999V11.5833ZM3.49999 9.25H2.33332V8.08333H3.49999V9.25ZM3.49999 6.91667H2.33332V5.75H3.49999V6.91667ZM3.49999 4.58333H2.33332V3.41667H3.49999V4.58333ZM5.83332 11.5833H4.66666V10.4167H5.83332V11.5833ZM5.83332 9.25H4.66666V8.08333H5.83332V9.25ZM5.83332 6.91667H4.66666V5.75H5.83332V6.91667ZM5.83332 4.58333H4.66666V3.41667H5.83332V4.58333ZM11.6667 11.5833H6.99999V10.4167H8.16666V9.25H6.99999V8.08333H8.16666V6.91667H6.99999V5.75H11.6667V11.5833ZM10.5 6.91667H9.33332V8.08333H10.5V6.91667ZM10.5 9.25H9.33332V10.4167H10.5V9.25Z" fill="#090C05"/>
</svg>
