<svg width="54" height="54" viewBox="0 0 54 54" fill="none" xmlns="http://www.w3.org/2000/svg">
<rect opacity="0.24" width="54" height="54" rx="27" fill="#75EED9"/>
<g clip-path="url(#clip0_0_233)">
<path d="M28.03 16.87L17.04 15.2C16.53 15.12 16.01 15.26 15.62 15.59C15.23 15.93 15 16.42 15 16.93V38C15 38.55 15.45 39 16 39H19.25V33.75C19.25 32.78 20.03 32 21 32H23.5C24.47 32 25.25 32.78 25.25 33.75V39H29.5V18.6C29.5 17.74 28.88 17.01 28.03 16.87ZM20.5 29.75H19C18.586 29.75 18.25 29.414 18.25 29C18.25 28.586 18.586 28.25 19 28.25H20.5C20.914 28.25 21.25 28.586 21.25 29C21.25 29.414 20.914 29.75 20.5 29.75ZM20.5 26.75H19C18.586 26.75 18.25 26.414 18.25 26C18.25 25.586 18.586 25.25 19 25.25H20.5C20.914 25.25 21.25 25.586 21.25 26C21.25 26.414 20.914 26.75 20.5 26.75ZM20.5 23.75H19C18.586 23.75 18.25 23.414 18.25 23C18.25 22.586 18.586 22.25 19 22.25H20.5C20.914 22.25 21.25 22.586 21.25 23C21.25 23.414 20.914 23.75 20.5 23.75ZM20.5 20.75H19C18.586 20.75 18.25 20.414 18.25 20C18.25 19.586 18.586 19.25 19 19.25H20.5C20.914 19.25 21.25 19.586 21.25 20C21.25 20.414 20.914 20.75 20.5 20.75ZM25.5 29.75H24C23.586 29.75 23.25 29.414 23.25 29C23.25 28.586 23.586 28.25 24 28.25H25.5C25.914 28.25 26.25 28.586 26.25 29C26.25 29.414 25.914 29.75 25.5 29.75ZM25.5 26.75H24C23.586 26.75 23.25 26.414 23.25 26C23.25 25.586 23.586 25.25 24 25.25H25.5C25.914 25.25 26.25 25.586 26.25 26C26.25 26.414 25.914 26.75 25.5 26.75ZM25.5 23.75H24C23.586 23.75 23.25 23.414 23.25 23C23.25 22.586 23.586 22.25 24 22.25H25.5C25.914 22.25 26.25 22.586 26.25 23C26.25 23.414 25.914 23.75 25.5 23.75ZM25.5 20.75H24C23.586 20.75 23.25 20.414 23.25 20C23.25 19.586 23.586 19.25 24 19.25H25.5C25.914 19.25 26.25 19.586 26.25 20C26.25 20.414 25.914 20.75 25.5 20.75Z" fill="#75EED9"/>
<path d="M37.62 25.8421L30.5 24.3511V39.0001H37.25C38.215 39.0001 39 38.2151 39 37.2501V27.5521C39 26.7261 38.437 26.0231 37.62 25.8421ZM35.25 36.0001H33.75C33.336 36.0001 33 35.6641 33 35.2501C33 34.8361 33.336 34.5001 33.75 34.5001H35.25C35.664 34.5001 36 34.8361 36 35.2501C36 35.6641 35.664 36.0001 35.25 36.0001ZM35.25 33.0001H33.75C33.336 33.0001 33 32.6641 33 32.2501C33 31.8361 33.336 31.5001 33.75 31.5001H35.25C35.664 31.5001 36 31.8361 36 32.2501C36 32.6641 35.664 33.0001 35.25 33.0001ZM35.25 30.0001H33.75C33.336 30.0001 33 29.6641 33 29.2501C33 28.8361 33.336 28.5001 33.75 28.5001H35.25C35.664 28.5001 36 28.8361 36 29.2501C36 29.6641 35.664 30.0001 35.25 30.0001Z" fill="#75EED9"/>
</g>
<defs>
<clipPath id="clip0_0_233">
<rect width="24" height="24" fill="white" transform="translate(15 15)"/>
</clipPath>
</defs>
</svg>
