<svg width="19" height="19" viewBox="0 0 19 19" fill="none" xmlns="http://www.w3.org/2000/svg">
<g clip-path="url(#clip0_72_130)">
<path d="M17.8204 7.93517L10.4784 7.93481C10.1542 7.93481 9.89136 8.19757 9.89136 8.52178V10.8672C9.89136 11.1914 10.1541 11.4542 10.4783 11.4542H14.6129C14.1602 12.6292 13.3152 13.6131 12.2371 14.2384L14 17.2902C16.8281 15.6547 18.5 12.7849 18.5 9.57239C18.5 9.11497 18.4663 8.78799 18.3989 8.41979C18.3476 8.14006 18.1048 7.93517 17.8204 7.93517Z" fill="#090C05"/>
<path d="M9.49996 14.9783C7.47657 14.9783 5.71018 13.8727 4.76149 12.2368L1.70972 13.9958C3.26274 16.6875 6.17206 18.5 9.49996 18.5C11.1325 18.5 12.6729 18.0605 14 17.2944V17.2902L12.237 14.2383C11.4306 14.7061 10.4974 14.9783 9.49996 14.9783Z" fill="#090C05"/>
<path d="M14 17.2944V17.2902L12.237 14.2383C11.4306 14.706 10.4975 14.9782 9.5 14.9782V18.5C11.1326 18.5 12.6731 18.0604 14 17.2944Z" fill="#090C05"/>
<path d="M4.02174 9.5C4.02174 8.50265 4.29392 7.56957 4.76154 6.76319L1.70976 5.00418C0.939523 6.32701 0.5 7.86326 0.5 9.5C0.5 11.1367 0.939523 12.673 1.70976 13.9958L4.76154 12.2368C4.29392 11.4304 4.02174 10.4973 4.02174 9.5Z" fill="#090C05"/>
<path d="M9.49996 4.02174C10.8194 4.02174 12.0314 4.49059 12.978 5.27046C13.2116 5.46283 13.551 5.44895 13.7649 5.23502L15.4268 3.57318C15.6695 3.33046 15.6522 2.93316 15.3929 2.70823C13.8068 1.33225 11.7432 0.5 9.49996 0.5C6.17206 0.5 3.26274 2.31255 1.70972 5.00418L4.76149 6.76319C5.71018 5.12727 7.47657 4.02174 9.49996 4.02174Z" fill="#090C05"/>
<path d="M12.9781 5.27046C13.2116 5.46283 13.5511 5.44895 13.765 5.23502L15.4268 3.57318C15.6695 3.33046 15.6522 2.93316 15.393 2.70823C13.8069 1.33222 11.7432 0.5 9.5 0.5V4.02174C10.8194 4.02174 12.0314 4.49059 12.9781 5.27046Z" fill="#090C05"/>
</g>
<defs>
<clipPath id="clip0_72_130">
<rect width="18" height="18" fill="white" transform="translate(0.5 0.5)"/>
</clipPath>
</defs>
</svg>
