<svg width="24" height="24" viewBox="0 0 24 24" fill="none" xmlns="http://www.w3.org/2000/svg">
<path d="M21.9967 6.11043L7.77008 22.521C6.57321 23.8612 4.65907 24.3394 2.89985 23.7431C1.87699 23.3987 1.03452 22.7277 0.533702 21.8559L0.525214 21.8441H0.523092C0.499749 21.7968 0.478527 21.7555 0.457306 21.7181C0.0137865 20.9546 0.0180308 19.8938 0.0180308 19.8938C0.00954235 19.1519 -0.018045 11.477 0.0180308 0C1.79848 0.00196793 3.58105 0.00590398 5.36149 0.00787191V17.5008L5.63736 17.1958C6.49894 16.2354 15.6176 5.93135 16.4813 4.971L23.0429 4.90606L21.9988 6.11043H21.9967Z" fill="white"/>
<path d="M23.9978 24.0001H16.5174L13.069 20.7569L12.6616 20.3732L16.0209 16.4983L16.5811 17.0237L19.1319 19.4226C20.7553 20.9458 22.3766 22.4729 24 24.0001H23.9978Z" fill="white"/>
</svg>
