<svg width="16" height="16" viewBox="0 0 16 16" fill="none" xmlns="http://www.w3.org/2000/svg">
<path d="M13.9972 14.0001L14.0002 13.9996V9.59861C14.0002 7.44561 13.5367 5.78711 11.0197 5.78711C9.80969 5.78711 8.99769 6.45111 8.66619 7.08061H8.63119V5.98811H6.24469V13.9996H8.72969V10.0326C8.72969 8.98811 8.92769 7.97811 10.2212 7.97811C11.4957 7.97811 11.5147 9.17011 11.5147 10.0996V14.0001H13.9972Z" fill="#7F8192"/>
<path d="M2.19824 5.98828H4.68624V13.9998H2.19824V5.98828Z" fill="#7F8192"/>
<path d="M3.44103 2C2.64553 2 2.00003 2.6455 2.00003 3.441C2.00003 4.2365 2.64553 4.8955 3.44103 4.8955C4.23653 4.8955 4.88203 4.2365 4.88203 3.441C4.88153 2.6455 4.23603 2 3.44103 2Z" fill="#7F8192"/>
</svg>
