<svg width="16" height="16" viewBox="0 0 16 16" fill="none" xmlns="http://www.w3.org/2000/svg">
<path d="M11.3333 4.6665H8.66666V5.99984H11.3333C12.4333 5.99984 13.3333 6.89984 13.3333 7.99984C13.3333 9.09984 12.4333 9.99984 11.3333 9.99984H8.66666V11.3332H11.3333C13.1733 11.3332 14.6667 9.83984 14.6667 7.99984C14.6667 6.15984 13.1733 4.6665 11.3333 4.6665ZM7.33333 9.99984H4.66666C3.56666 9.99984 2.66666 9.09984 2.66666 7.99984C2.66666 6.89984 3.56666 5.99984 4.66666 5.99984H7.33333V4.6665H4.66666C2.82666 4.6665 1.33333 6.15984 1.33333 7.99984C1.33333 9.83984 2.82666 11.3332 4.66666 11.3332H7.33333V9.99984ZM5.33333 7.33317H10.6667V8.6665H5.33333V7.33317Z" fill="#7F8192"/>
</svg>
