<svg width="40" height="40" viewBox="0 0 40 40" fill="none" xmlns="http://www.w3.org/2000/svg">
<g id="KompassAI-icon" clip-path="url(#clip0_20_6)">
<path id="Vector" d="M32.2075 40H7.79255C3.48872 40 0 36.5113 0 32.2075V7.79255C0 3.48872 3.48872 0 7.79255 0H32.2075C32.7271 0 35.4863 0.050945 37.7177 2.28234C39.1278 3.6925 40 5.64063 40 7.79255V32.2075C40 36.5113 36.5113 40 32.2075 40Z" fill="#090C05"/>
<g id="Group">
<path id="Vector_2" d="M30.7055 13.8996L17.0441 30.8929C15.8948 32.2806 14.0567 32.7758 12.3673 32.1583C11.3851 31.8017 10.5761 31.1068 10.0952 30.2041L10.087 30.1919H10.085C10.0626 30.143 10.0422 30.1002 10.0218 30.0614C9.59593 29.2708 9.6 28.1724 9.6 28.1724C9.59185 27.4041 9.56536 19.4567 9.6 7.57227C11.3097 7.5743 13.0215 7.57838 14.7312 7.58042V25.6944L14.9961 25.3786C15.8234 24.3841 24.5799 13.7142 25.4093 12.7198L31.7101 12.6525L30.7075 13.8996H30.7055Z" fill="white"/>
<path id="Vector_3" d="M32.6271 32.4253H25.4439L22.1325 29.067L21.7412 28.6697L24.9671 24.6572L25.505 25.2013L27.9545 27.6854C29.5134 29.2627 31.0703 30.844 32.6292 32.4253H32.6271Z" fill="white"/>
</g>
</g>
<defs>
<clipPath id="clip0_20_6">
<rect width="40" height="40" fill="white"/>
</clipPath>
</defs>
</svg>
