<svg width="20" height="20" viewBox="0 0 20 20" fill="none" xmlns="http://www.w3.org/2000/svg">
<path d="M7.49999 9.99996C9.10832 9.99996 10.4167 8.69163 10.4167 7.08329C10.4167 5.47496 9.10832 4.16663 7.49999 4.16663C5.89166 4.16663 4.58332 5.47496 4.58332 7.08329C4.58332 8.69163 5.89166 9.99996 7.49999 9.99996ZM7.49999 5.83329C8.19166 5.83329 8.74999 6.39163 8.74999 7.08329C8.74999 7.77496 8.19166 8.33329 7.49999 8.33329C6.80832 8.33329 6.24999 7.77496 6.24999 7.08329C6.24999 6.39163 6.80832 5.83329 7.49999 5.83329ZM7.54166 14.1666H3.97499C4.79999 13.75 6.22499 13.3333 7.49999 13.3333C7.59166 13.3333 7.69166 13.3416 7.78332 13.3416C8.06666 12.7333 8.55832 12.2333 9.14999 11.8333C8.54166 11.725 7.96666 11.6666 7.49999 11.6666C5.54999 11.6666 1.66666 12.6416 1.66666 14.5833V15.8333H7.49999V14.5833C7.49999 14.4416 7.51666 14.3 7.54166 14.1666ZM13.75 12.0833C12.2167 12.0833 9.16666 12.925 9.16666 14.5833V15.8333H18.3333V14.5833C18.3333 12.925 15.2833 12.0833 13.75 12.0833ZM14.7583 10.5666C15.3917 10.2083 15.8333 9.53329 15.8333 8.74996C15.8333 7.59996 14.9 6.66663 13.75 6.66663C12.6 6.66663 11.6667 7.59996 11.6667 8.74996C11.6667 9.53329 12.1083 10.2083 12.7417 10.5666C13.0417 10.7333 13.3833 10.8333 13.75 10.8333C14.1167 10.8333 14.4583 10.7333 14.7583 10.5666Z" fill="#7F8192"/>
</svg>
