<svg width="14" height="15" viewBox="0 0 14 15" fill="none" xmlns="http://www.w3.org/2000/svg">
<path d="M12.2495 6.40333H8.29453L9.89287 4.75833C8.30037 3.18333 5.72203 3.125 4.12953 4.7C2.53703 6.28083 2.53703 8.83 4.12953 10.4108C5.72203 11.9917 8.30037 11.9917 9.89287 10.4108C10.6862 9.62917 11.0829 8.71333 11.0829 7.55833H12.2495C12.2495 8.71333 11.7362 10.2125 10.7095 11.2275C8.66203 13.2575 5.33703 13.2575 3.28953 11.2275C1.24787 9.20333 1.23037 5.91333 3.27787 3.88917C5.32537 1.865 8.60954 1.865 10.657 3.88917L12.2495 2.25V6.40333ZM7.2912 5.16667V7.64583L9.33287 8.85917L8.91287 9.565L6.4162 8.08333V5.16667H7.2912Z" fill="#E7436A"/>
</svg>
